<svg xmlns="http://www.w3.org/2000/svg" width="408" height="44" viewBox="0 0 408 44">
  <path fill="#00A5E4" d="M393.17,0.4 L393.17,32 C393.17,32.6 392.91,33.1 392.41,33.5 C391.89,33.8 391.29,34 390.58,34 C390.01,34 389.45,33.9 388.9,33.7 C388.37,33.5 387.93,33.1 387.6,32.7 C386.42,31 384.55,26.7 382,19.9 C379.7,13.6 377.27,9.1 374.72,6.3 C370.88,2.1 365.75,3.63797881e-12 359.32,3.63797881e-12 C354.51,3.63797881e-12 350.54,0.7 347.44,2 C343.87,3.7 342.07,6 342.07,9.1 L342.07,42.8 L356.48,42.8 L356.48,11.2 C356.48,10.6 356.65,10.2 356.99,9.8 C357.32,9.5 357.96,9.3 358.88,9.1 C360.25,9 362.01,10.8 364.14,14.6 C365.65,17.2 367.46,21.1 369.61,26.2 C371.9,31.6 373.19,34.6 373.48,35.1 C374.88,37.9 377.3,40 380.71,41.5 C383.74,42.8 387.19,43.4 391.07,43.4 C395.5,43.4 399.32,42.6 402.51,41 C405.89,39.2 407.58,37 407.58,34.3 L407.58,0.4 L393.17,0.4 Z M322.29,29.9 C320.22,32.5 317.47,33.8 314.06,33.8 L297.64,33.8 C294.2,33.8 291.45,32.5 289.41,29.9 C287.56,27.6 286.63,24.7 286.63,21.4 C286.63,18.2 287.55,15.5 289.36,13.3 C291.38,10.9 294.13,9.7 297.64,9.7 L314.06,9.7 C317.6,9.7 320.37,10.9 322.39,13.3 C324.21,15.5 325.12,18.2 325.12,21.4 C325.12,24.7 324.18,27.6 322.29,29.9 L322.29,29.9 Z M316.44,0.8 L295.24,0.8 C287.74,0.8 281.76,3 277.28,7.5 C275.13,9.7 273.57,12.1 272.57,14.7 C272.61,14.3 272.63,13.9 272.63,13.5 C272.63,10.1 271.17,7.1 268.22,4.8 C265,2.1 260.63,0.8 255.1,0.8 L172.26,0.8 L172.26,9.7 L186.88,9.7 L186.88,42.9 L201.09,42.9 L201.09,9.7 L252.73,9.7 C254.35,9.7 255.64,10.1 256.56,10.9 C257.38,11.6 257.81,12.5 257.81,13.5 C257.81,14.5 257.38,15.3 256.56,16 C255.64,16.8 254.35,17.1 252.73,17.1 L235.09,17.1 C229.32,17.1 224.94,18.3 221.96,20.7 C219.37,22.8 218.08,25.5 218.08,28.9 L218.08,42.8 L232.29,42.8 L232.29,32.3 L273.15,43.7 L273.15,33.8 L246.14,26.2 L255.1,26.2 C260.66,26.2 265.05,24.9 268.27,22.3 C269.78,21 270.89,19.7 271.61,18.1 C271.38,19.4 271.26,20.8 271.26,22.2 C271.26,27.8 273.23,32.6 277.19,36.4 C281.6,40.7 287.62,42.9 295.24,42.9 L316.44,42.9 C324.1,42.9 330.13,40.7 334.53,36.4 C338.47,32.6 340.43,27.8 340.43,22.2 C340.43,16.4 338.41,11.5 334.4,7.5 C329.93,3 323.94,0.8 316.44,0.8 L316.44,0.8 Z M124.78,3.8 C121.66,5.5 119.35,8 117.89,11.4 C116.68,14.2 116.07,17.5 116.07,21.5 L116.07,42.9 L130.48,42.9 L130.48,26.2 L170.88,26.2 L170.88,17.1 L130.48,17.1 C130.57,16.5 130.69,15.9 130.82,15.2 C131.23,13.7 131.96,12.5 133.02,11.6 C134.49,10.3 136.49,9.7 139.01,9.7 L170.88,9.7 L170.88,0.8 L139.01,0.8 C133.11,0.8 128.37,1.8 124.78,3.8 L124.78,3.8 Z M95.44,29.9 C93.37,32.5 90.62,33.8 87.21,33.8 L72.22,33.8 L72.22,9.7 L87.21,9.7 C90.75,9.7 93.53,10.9 95.54,13.3 C97.33,15.5 98.22,18.2 98.22,21.4 C98.22,24.8 97.29,27.6 95.44,29.9 L95.44,29.9 Z M89.61,0.8 L57.81,0.8 L57.81,42.9 L89.61,42.9 C97.26,42.9 103.29,40.7 107.71,36.4 C111.63,32.6 113.59,27.8 113.59,22.2 C113.59,16.4 111.59,11.5 107.56,7.5 C103.09,3 97.11,0.8 89.61,0.8 L89.61,0.8 Z M50.17,4.8 C46.95,2.1 42.57,0.8 37.05,0.8 L0.04,0.8 L0.04,9.7 L34.66,9.7 C36.3,9.7 37.58,10.1 38.5,10.9 C39.34,11.6 39.75,12.5 39.75,13.5 C39.75,14.5 39.34,15.3 38.5,16 C37.58,16.8 36.3,17.1 34.66,17.1 L17.04,17.1 C11.26,17.1 6.89,18.3 3.91,20.7 C1.32,22.8 0.04,25.6 0.04,28.9 C0.02,31.1 1.26217745e-29,33.2 1.26217745e-29,35.2 L1.26217745e-29,40 C1.26217745e-29,41.2 0.02,42.2 0.04,42.9 L14.23,42.9 L14.23,33.9 C14.14,33.8 14.09,33.6 14.07,33.4 C14.04,33.3 14.03,33 14.03,32.5 C14.03,30.9 14.54,29.6 15.57,28.6 C17.1,27 19.63,26.2 23.18,26.2 L37.03,26.2 C42.6,26.2 47,24.9 50.22,22.3 C53.12,19.9 54.58,17 54.58,13.5 C54.58,10.1 53.11,7.1 50.17,4.8 L50.17,4.8 Z"/>
</svg>
